<?xml version="1.0" encoding="UTF-8"?>
<svg width="40px" height="55px" viewBox="0 0 40 55" version="1.1" xmlns="http://www.w3.org/2000/svg" xmlns:xlink="http://www.w3.org/1999/xlink">
    <!-- Generator: sketchtool 52.5 (67469) - http://www.bohemiancoding.com/sketch -->
    <title>67201599-AB07-4D1A-A0AE-FA10CD38FCAF</title>
    <desc>Created with sketchtool.</desc>
    <g id="Tour" stroke="none" stroke-width="1" fill="none" fill-rule="evenodd">
        <g id="Tour-Page---Update-3" transform="translate(-680.000000, -2629.000000)" fill="#21263b">
            <g id="Where-can-i-get" transform="translate(355.000000, 2629.000000)">
                <g id="logo-purple" transform="translate(325.000000, 0.000000)">
                    <path d="M38.43462,23.687205 C38.8731,23.939772 39.25404,24.30594 39.525402,24.774765 C39.796974,25.24359 39.92436,25.755792 39.92436,26.260869 L39.92436,27.640782 L39.92436,34.020507 C39.92436,35.506041 39.529728,36.971226 38.785194,38.257944 C38.04108,39.544605 36.966342,40.617402 35.675976,41.360625 L14.674716,53.452947 C14.42616,53.597214 14.141694,53.672454 13.852398,53.672454 C13.563984,53.672454 13.288632,53.598981 13.034784,53.452947 C12.529776,53.162019 12.215952,52.620006 12.215952,52.037295 L12.215952,44.57628 C12.215952,44.070861 12.087978,43.559571 11.816406,43.090119 L25.247418,35.356188 C26.537994,34.612965 27.613236,33.540168 28.358064,32.253792 C28.621614,31.797963 28.840896,31.320303 29.015364,30.827253 C29.332296,29.926824 29.496684,28.974411 29.496684,28.015785 L29.496684,20.341761 C29.496684,19.982946 29.683752,19.63365 30.018114,19.44099 C30.35214,19.249185 30.748998,19.261554 31.061016,19.44099 L32.616318,20.336745 L38.43462,23.687205 Z M10.428558,52.037295 C10.428558,53.218677 11.043186,54.365517 12.141066,54.997191 L1.713222,48.992469 C0.614922,48.358743 -1.34114941e-13,47.212473 -1.34114941e-13,46.031433 L-1.34114941e-13,39.686535 C-1.34114941e-13,39.327777 0.187446,38.978139 0.521094,38.785764 C0.855456,38.593389 1.252482,38.606385 1.564332,38.785764 L8.938524,43.032036 C9.376626,43.284546 9.75765,43.650714 10.028886,44.119539 C10.300458,44.588649 10.428558,45.100566 10.428558,45.6057 L10.428558,52.037295 Z M39.103638,8.007474 C39.6102,8.298972 39.92436,8.84241 39.92436,9.425463 L39.92436,16.799724 C39.92436,17.158197 39.737292,17.50755 39.403056,17.699925 C39.068862,17.8923 38.672046,17.879589 38.360616,17.699925 L29.496684,12.595974 L37.463622,8.007474 C37.71243,7.863492 37.998324,7.787967 38.28573,7.787967 C38.574732,7.787967 38.850588,7.86201 39.103638,8.007474 Z M1.564332,32.842089 C1.104096,32.576868 0.70434,32.191833 0.41916,31.699695 C0.13419,31.207557 -1.34114941e-13,30.66999 -1.34114941e-13,30.139548 L-1.34114941e-13,21.435762 C-1.34114941e-13,19.691448 0.44121,17.924448 1.378062,16.306446 C2.314746,14.688444 3.629136,13.42236 5.142564,12.551742 L26.14143,0.457596 C26.662944,0.157833 27.255858,1.02140518e-14 27.858978,1.02140518e-14 C28.440468,1.02140518e-14 29.030568,0.147231 29.56968,0.457596 L39.99744,6.4638 C39.45669,6.152808 38.868018,6.004722 38.28573,6.004722 C37.683786,6.004722 37.091208,6.163752 36.569904,6.4638 L15.570324,18.556122 C14.057274,19.426797 12.743262,20.692824 11.80641,22.310826 C10.868928,23.929455 10.428558,25.695885 10.428558,27.440484 L10.428558,36.144213 C10.428558,36.503598 10.241196,36.853236 9.906414,37.044984 C9.572388,37.237359 9.175236,37.224705 8.863932,37.044984 L1.564332,32.842089 Z" id="Combined-shape-50"></path>
                </g>
            </g>
        </g>
    </g>
</svg>