<svg width="100" height="100" viewBox="0 0 100 100" fill="none" xmlns="http://www.w3.org/2000/svg">
<rect opacity="0.0229128" x="0.5" y="0.5" width="99" height="99" stroke="#2B2B2B"/>
<path fill-rule="evenodd" clip-rule="evenodd" d="M72.0357 22.2658C70.9013 22.2658 69.7683 22.3862 68.6607 22.627C65.1197 14.3936 56.8582 8.90137 47.9183 8.90137C36.7632 8.90137 27.4856 16.7932 25.6391 27.751C25.6123 27.751 25.587 27.751 25.5603 27.751C18.2671 27.751 12.332 33.7108 12.332 41.0356C12.332 48.359 18.2671 54.3174 25.5603 54.3174H72.0357C80.8334 54.3174 87.9914 47.1284 87.9914 38.2916C87.9914 29.4548 80.8334 22.2658 72.0357 22.2658ZM84.7825 38.2916C84.7825 45.3588 79.0643 51.1072 72.0357 51.1072H25.5603C20.0362 51.1072 15.5409 46.5894 15.5409 41.0356C15.5409 35.4804 20.0362 30.9612 25.5603 30.9612C25.929 30.9612 26.3329 30.9892 26.8283 31.0508L28.4595 31.2538L28.6228 29.6186C29.6305 19.6394 37.9257 12.113 47.9183 12.113C56.0925 12.113 63.4308 17.3252 66.1766 25.084L66.696 26.5484L68.1751 26.0766C69.4306 25.6776 70.7282 25.476 72.0357 25.476C79.0643 25.476 84.7825 31.2244 84.7825 38.2916Z" fill="white"/>
<path fill-rule="evenodd" clip-rule="evenodd" d="M25.7856 63.1561C27.1367 65.6103 28.4878 68.0645 29.8389 70.5187C30.7805 72.2267 33.4067 70.7021 32.4651 68.9913C31.114 66.5371 29.7615 64.0843 28.4104 61.6301C27.4702 59.9221 24.8426 61.4467 25.7856 63.1561Z" fill="white"/>
<path fill-rule="evenodd" clip-rule="evenodd" d="M71.9824 63.1561C73.3335 65.6103 74.6846 68.0645 76.0371 70.5187C76.9773 72.2267 79.6035 70.7021 78.6619 68.9913C77.3108 66.5371 75.9597 64.0843 74.6072 61.6301C73.667 59.9221 71.0408 61.4467 71.9824 63.1561Z" fill="white"/>
<path fill-rule="evenodd" clip-rule="evenodd" d="M68.5875 71.2391C69.94 73.6933 71.2911 76.1475 72.6423 78.6003C73.5838 80.3083 76.21 78.7837 75.2685 77.0743C73.9174 74.6201 72.5663 72.1659 71.2137 69.7131C70.2736 68.0051 67.646 69.5297 68.5875 71.2391Z" fill="white"/>
<path fill-rule="evenodd" clip-rule="evenodd" d="M15.1808 62.0598C16.5333 64.5126 17.8844 66.9668 19.2355 69.421C20.1771 71.129 22.8033 69.6044 21.8617 67.8936C20.5106 65.4408 19.1581 62.9866 17.807 60.5324C16.8669 58.8244 14.2392 60.349 15.1808 62.0598Z" fill="white"/>
<path fill-rule="evenodd" clip-rule="evenodd" d="M25.7856 73.5393C27.1367 75.9921 28.4878 78.4463 29.8389 80.9005C30.7805 82.6085 33.4067 81.0839 32.4651 79.3731C31.114 76.9203 29.7615 74.4661 28.4104 72.0119C27.4702 70.3039 24.8426 71.8285 25.7856 73.5393Z" fill="white"/>
<path fill-rule="evenodd" clip-rule="evenodd" d="M55.123 54.166L54.7993 54.3172H55.1948L55.123 54.166Z" fill="white"/>
<path fill-rule="evenodd" clip-rule="evenodd" d="M40.4522 54.0322L39.999 54.3178H40.6352L40.4522 54.0322Z" fill="white"/>
<path fill-rule="evenodd" clip-rule="evenodd" d="M61.5323 73.4414H56.6359C55.9871 73.4414 55.3847 73.762 55.0245 74.2996C54.6642 74.8372 54.598 75.5148 54.8485 76.1126L59.4451 87.0508L40.7238 67.3024H45.4105C46.117 67.3024 46.7672 66.9188 47.1078 66.3028C47.4484 65.6854 47.4245 64.9336 47.0445 64.34L42.4141 57.1006H39.5317L44.5069 64.8818H39.5767C38.8013 64.8818 38.1032 65.3382 37.7964 66.0452C37.491 66.7522 37.6359 67.5712 38.1665 68.1312L59.5422 90.6796C59.925 91.0842 60.4303 91.2928 60.944 91.2928C61.3085 91.2928 61.6759 91.1878 62.0052 90.975C62.8046 90.4598 63.1072 89.4896 62.7399 88.6146L57.3805 75.8606H62.3134C62.9805 75.8606 63.5927 75.526 63.9502 74.966C64.3063 74.4046 64.3499 73.7116 64.067 73.1152L56.5079 57.1006H53.8197L61.5323 73.4414Z" fill="white"/>
</svg>
