<svg width="100" height="100" viewBox="0 0 100 100" fill="none" xmlns="http://www.w3.org/2000/svg">
<rect opacity="0.0229128" x="0.5" y="0.5" width="99" height="99" stroke="#2B2B2B"/>
<path fill-rule="evenodd" clip-rule="evenodd" d="M70.3453 31.9794C69.1876 31.9794 68.0313 32.1031 66.9009 32.3463C63.287 23.9837 54.8556 18.4043 45.7318 18.4043C34.3472 18.4043 24.8801 26.4199 22.9941 37.5517C22.9683 37.5517 22.941 37.5517 22.9151 37.5517C15.4705 37.5517 9.41333 43.6061 9.41333 51.0471C9.41333 58.4882 15.4705 64.5412 22.9151 64.5412H70.3453C79.324 64.5412 86.6294 57.2367 86.6294 48.2596C86.6294 39.2825 79.324 31.9794 70.3453 31.9794ZM83.3545 48.2596C83.3545 55.439 77.52 61.2786 70.3453 61.2786H22.9151C17.276 61.2786 12.6882 56.6891 12.6882 51.0471C12.6882 45.4038 17.276 40.8128 22.9151 40.8128C23.2915 40.8128 23.7023 40.8427 24.2079 40.9039L25.8726 41.1115L26.0392 39.4503C27.0677 29.3113 35.5336 21.6655 45.7318 21.6655C54.0756 21.6655 61.5634 26.9604 64.3657 34.8423L64.8957 36.33L66.4054 35.8507C67.6866 35.4468 69.0124 35.242 70.3453 35.242C77.52 35.242 83.3545 41.0816 83.3545 48.2596Z" fill="white"/>
<path fill-rule="evenodd" clip-rule="evenodd" d="M23.1435 73.5197C24.5224 76.0129 25.9013 78.5046 27.2816 80.9978C28.2411 82.7329 30.9214 81.1841 29.9605 79.4476C28.5816 76.9544 27.2026 74.4612 25.8223 71.9681C24.8628 70.233 22.1826 71.7818 23.1435 73.5197Z" fill="white"/>
<path fill-rule="evenodd" clip-rule="evenodd" d="M38.517 73.5197C39.8959 76.0129 41.2748 78.5046 42.6537 80.9978C43.6146 82.7329 46.2949 81.1841 45.334 79.4476C43.9551 76.9544 42.5762 74.4612 41.1958 71.9681C40.2363 70.233 37.5546 71.7818 38.517 73.5197Z" fill="white"/>
<path fill-rule="evenodd" clip-rule="evenodd" d="M54.6747 73.5197C56.055 76.0129 57.4339 78.5046 58.8128 80.9978C59.7723 82.7329 62.454 81.1841 61.4931 79.4476C60.1142 76.9544 58.7338 74.4612 57.3549 71.9681C56.3954 70.233 53.7137 71.7818 54.6747 73.5197Z" fill="white"/>
<path fill-rule="evenodd" clip-rule="evenodd" d="M70.2907 73.5197C71.6696 76.0129 73.05 78.5046 74.4289 80.9978C75.3884 82.7329 78.07 81.1841 77.1091 79.4476C75.7288 76.9544 74.3499 74.4612 72.971 71.9681C72.01 70.233 69.3298 71.7818 70.2907 73.5197Z" fill="white"/>
</svg>
