<svg width="100" height="100" viewBox="0 0 100 100" fill="none" xmlns="http://www.w3.org/2000/svg">
<rect opacity="0.0229128" x="0.5" y="0.5" width="99" height="99" stroke="#2B2B2B"/>
<path fill-rule="evenodd" clip-rule="evenodd" d="M82.7019 54.7434C81.6798 54.7434 80.6594 54.8525 79.6619 55.069C76.4712 47.6588 69.0285 42.7148 60.9748 42.7148C50.9244 42.7148 42.5677 49.8174 40.9035 59.6809C40.8806 59.6809 40.8577 59.6809 40.8331 59.6809C34.2617 59.6809 28.9155 65.0448 28.9155 71.6395C28.9155 78.2309 34.2617 83.5932 40.8331 83.5932H82.7019C90.6279 83.5932 97.0764 77.1223 97.0764 69.1683C97.0764 61.2144 90.6279 54.7434 82.7019 54.7434ZM94.1854 69.1683C94.1854 75.5286 89.0341 80.7037 82.7019 80.7037H40.8331C35.8554 80.7037 31.8065 76.6372 31.8065 71.6395C31.8065 66.6386 35.8554 62.5704 40.8331 62.5704C41.1656 62.5704 41.5292 62.5965 41.9764 62.6518L43.4456 62.8341L43.593 61.3625C44.4988 52.3797 51.9727 45.606 60.9748 45.606C68.3389 45.606 74.9496 50.296 77.4245 57.2797L77.8913 58.5983L79.2229 58.1734C80.3548 57.8153 81.5242 57.6346 82.7019 57.6346C89.0341 57.6346 94.1854 62.8081 94.1854 69.1683Z" fill="white"/>
<path fill-rule="evenodd" clip-rule="evenodd" d="M23.7559 36.2821C24.3275 36.9202 25.3201 36.9788 25.9621 36.4123C26.6059 35.8442 26.6648 34.8577 26.0932 34.2195L16.9093 23.9393C16.3393 23.3012 15.3467 23.2426 14.703 23.8107C14.0609 24.3772 14.002 25.3637 14.572 26.0035L23.7559 36.2821Z" fill="white"/>
<path fill-rule="evenodd" clip-rule="evenodd" d="M22.6586 61.7045L12.5329 71.0682C11.904 71.651 11.8679 72.6375 12.4527 73.2643C13.0391 73.8894 14.0333 73.9252 14.6622 73.3424L24.7879 63.9787C25.4169 63.3975 25.4529 62.4094 24.8682 61.7843C24.2818 61.1592 23.2876 61.1234 22.6586 61.7045Z" fill="white"/>
<path fill-rule="evenodd" clip-rule="evenodd" d="M63.3201 25.9952C62.7337 25.3701 61.7395 25.3343 61.1105 25.9155L50.9848 35.2792C50.3559 35.862 50.3198 36.8485 50.9062 37.4752C51.491 38.1003 52.4852 38.1362 53.1142 37.5534L63.2398 28.1896C63.8688 27.6085 63.9048 26.6203 63.3201 25.9952Z" fill="white"/>
<path fill-rule="evenodd" clip-rule="evenodd" d="M39.388 32.0505C40.2447 32.1173 40.9998 31.4743 41.0669 30.6229L42.1463 16.9191C42.2135 16.0677 41.5665 15.3156 40.7099 15.2489C39.8532 15.1822 39.0965 15.8252 39.0293 16.6766L37.9516 30.3803C37.8844 31.2333 38.5298 31.9838 39.388 32.0505Z" fill="white"/>
<path fill-rule="evenodd" clip-rule="evenodd" d="M20.2866 48.1959C20.3652 47.3461 19.7297 46.5859 18.8747 46.5061L5.10301 45.2331C4.24637 45.155 3.48146 45.785 3.40284 46.6364C3.32258 47.4878 3.95809 48.248 4.81309 48.3261L18.5848 49.5992C19.4415 49.6789 20.2064 49.0473 20.2866 48.1959Z" fill="white"/>
<path fill-rule="evenodd" clip-rule="evenodd" d="M26.2109 48.6962C26.7793 42.4027 32.3925 37.742 38.7247 38.3069C41.9236 38.5934 44.6999 40.1594 46.5933 42.4499C47.2829 41.7759 48.0347 41.1345 48.8504 40.5452C46.4705 37.6866 42.9915 35.7331 38.9884 35.3766C31.0314 34.6669 23.9768 40.5241 23.2627 48.4324C22.8008 53.5441 25.107 58.2683 28.9381 61.1708C29.3705 60.4317 29.9536 59.6243 30.7283 58.8331C27.6802 56.5231 25.844 52.7627 26.2109 48.6962Z" fill="white"/>
</svg>
