<svg width="100" height="100" viewBox="0 0 100 100" fill="none" xmlns="http://www.w3.org/2000/svg">
<g clip-path="url(#clip0)">
<rect opacity="0.0229128" x="0.5" y="0.5" width="98.0099" height="99" stroke="#2B2B2B"/>
<path fill-rule="evenodd" clip-rule="evenodd" d="M84.0977 50.7396C83.002 50.7396 81.908 50.8596 80.8387 51.0946C77.4195 43.023 69.4426 37.6396 60.8106 37.6396C50.0383 37.6396 41.0812 45.3746 39.2991 56.118C39.2727 56.118 39.2479 56.118 39.2231 56.118C32.1802 56.118 26.4492 61.9613 26.4492 69.1413C26.4492 76.3213 32.1802 82.163 39.2231 82.163H84.0977C92.5928 82.163 99.5037 75.1146 99.5037 66.4513C99.5037 57.788 92.5928 50.7396 84.0977 50.7396ZM96.4047 66.4513C96.4047 73.3797 90.8832 79.0146 84.0977 79.0146H39.2231C33.8882 79.0146 29.5482 74.5863 29.5482 69.1413C29.5482 63.6963 33.8882 59.2646 39.2231 59.2646C39.5796 59.2646 39.9674 59.293 40.4476 59.353L42.0218 59.553L42.1802 57.9496C43.1522 48.1646 51.1621 40.7863 60.8106 40.7863C68.7033 40.7863 75.7892 45.8963 78.4393 53.503L78.941 54.938L80.3684 54.4763C81.5812 54.0863 82.8354 53.888 84.0977 53.888C90.8832 53.888 96.4047 59.523 96.4047 66.4513Z" fill="white"/>
<path fill-rule="evenodd" clip-rule="evenodd" d="M21.2776 35.2678C21.8452 35.8945 22.8172 35.9378 23.4376 35.3645C24.0581 34.7895 24.101 33.8078 23.5333 33.1812L14.3947 23.1012C13.8271 22.4745 12.8535 22.4312 12.2347 23.0062C11.6142 23.5795 11.5713 24.5612 12.139 25.1878L21.2776 35.2678Z" fill="white"/>
<path fill-rule="evenodd" clip-rule="evenodd" d="M20.5859 60.5597L10.8202 70.0213C10.213 70.6097 10.1915 71.5913 10.774 72.2047C11.3565 72.818 12.3301 72.838 12.9374 72.2497L22.7031 62.7897C23.3087 62.2013 23.3301 61.218 22.7476 60.6047C22.1651 59.993 21.1915 59.9713 20.5859 60.5597Z" fill="white"/>
<path fill-rule="evenodd" clip-rule="evenodd" d="M36.5053 30.827C37.3453 30.8803 38.0746 30.2303 38.1274 29.3836L38.9773 15.742C39.0301 14.8936 38.3865 14.157 37.5482 14.1036C36.7083 14.0503 35.9789 14.7003 35.9261 15.5486L35.0763 29.1886C35.0235 30.037 35.667 30.7736 36.5053 30.827Z" fill="white"/>
<path fill-rule="evenodd" clip-rule="evenodd" d="M18.0614 47.1667C18.1274 46.3201 17.4937 45.5734 16.6554 45.5067L3.1637 44.4501C2.32542 44.3834 1.58614 45.0234 1.52014 45.8701C1.45578 46.7168 2.08779 47.4634 2.92773 47.5301L16.4195 48.5868C17.2578 48.6534 17.997 48.0134 18.0614 47.1667Z" fill="white"/>
<path fill-rule="evenodd" clip-rule="evenodd" d="M41.9307 36.1263C40.2046 35.163 38.2591 34.2963 36.1666 34.1396C28.3713 33.553 21.5561 39.483 20.9769 47.3563C20.6023 52.443 22.929 57.1063 26.7195 59.9346C27.1336 59.193 27.6914 58.3813 28.4356 57.583C25.4191 55.3313 23.566 51.6213 23.8647 47.573C24.3267 41.308 29.7492 36.5896 35.9505 37.0563C37.1666 37.148 36.8366 36.833 37.9059 37.278L38.3201 37.4363C38.3201 37.4363 39.6204 36.088 41.9307 36.1263Z" fill="white"/>
<path fill-rule="evenodd" clip-rule="evenodd" d="M91.6767 46.1752C91.6767 39.2385 86.1437 33.5952 79.3417 33.5952C78.4638 33.5952 77.5876 33.6902 76.7311 33.8785C73.9952 27.4152 67.6074 23.1035 60.6948 23.1035C52.0711 23.1035 44.8978 29.2985 43.4704 37.9002C43.4506 37.9002 43.4292 37.9002 43.4094 37.9002C37.7708 37.9002 33.1816 42.5785 33.1816 48.3285C33.1816 50.0452 33.6024 51.6568 34.3269 53.0835C34.9061 52.7935 35.7179 52.5035 36.7641 52.3368C36.076 51.1602 35.6635 49.7969 35.6635 48.3285C35.6635 43.9685 39.1387 40.4202 43.4094 40.4202C43.6948 40.4202 44.0067 40.4435 44.3896 40.4918L45.6503 40.6502L45.7774 39.3668C46.5562 31.5335 52.9688 25.6252 60.6948 25.6252C67.015 25.6252 72.6882 29.7168 74.812 35.8068L75.213 36.9568L76.3566 36.5868C77.3269 36.2735 78.3302 36.1152 79.3417 36.1152C84.7757 36.1152 89.1965 40.6285 89.1965 46.1752C89.1965 46.7402 89.142 47.2918 89.0529 47.8318C89.7344 47.9935 90.5876 48.2752 91.4044 48.7502C91.576 47.9185 91.6767 47.0585 91.6767 46.1752Z" fill="white"/>
</g>
<defs>
<clipPath id="clip0">
<rect width="100" height="100" fill="white"/>
</clipPath>
</defs>
</svg>
