<svg width="100" height="100" viewBox="0 0 100 100" fill="none" xmlns="http://www.w3.org/2000/svg">
<rect opacity="0.0229128" x="0.5" y="0.5" width="99" height="99" stroke="#2B2B2B"/>
<path fill-rule="evenodd" clip-rule="evenodd" d="M71.9875 33.9957C70.8431 33.9957 69.7014 34.1191 68.5853 34.3631C65.0186 26.0203 56.6925 20.4551 47.6856 20.4551C36.4437 20.4551 27.0964 28.4503 25.2358 39.5552C25.2088 39.5538 25.1819 39.5538 25.1563 39.5538C17.8059 39.5538 11.8254 45.5942 11.8254 53.0163C11.8254 60.437 17.8059 66.4746 25.1563 66.4746H71.9875C80.8526 66.4746 88.0655 59.1887 88.0655 50.2358C88.0655 41.2816 80.8526 33.9957 71.9875 33.9957ZM84.832 50.2358C84.832 57.3955 79.0699 63.2203 71.9875 63.2203H25.1563C19.5886 63.2203 15.0589 58.6425 15.0589 53.0163C15.0589 47.3873 19.5886 42.808 25.1563 42.808C25.5279 42.808 25.9335 42.8364 26.4341 42.8988L28.0764 43.1045L28.2423 41.4476C29.2563 31.3344 37.6151 23.7094 47.6856 23.7094C55.9224 23.7094 63.3154 28.9908 66.0837 36.8513L66.6055 38.3352L68.0961 37.8571C69.3611 37.4542 70.6701 37.2499 71.9875 37.2499C79.0699 37.2499 84.832 43.0747 84.832 50.2358Z" fill="white"/>
<path fill-rule="evenodd" clip-rule="evenodd" d="M57.1807 76.7986C57.1807 78.4924 55.8093 79.8642 54.1174 79.8642C52.4255 79.8642 51.0527 78.4924 51.0527 76.7986C51.0527 75.1062 52.4255 73.7344 54.1174 73.7344C55.8093 73.7344 57.1807 75.1062 57.1807 76.7986Z" fill="white"/>
<path fill-rule="evenodd" clip-rule="evenodd" d="M77.3581 75.782C77.3581 77.4758 75.9853 78.8476 74.2935 78.8476C72.6016 78.8476 71.2288 77.4758 71.2288 75.782C71.2288 74.0896 72.6016 72.7178 74.2935 72.7178C75.9853 72.7178 77.3581 74.0896 77.3581 75.782Z" fill="white"/>
<path fill-rule="evenodd" clip-rule="evenodd" d="M36.9441 77.112C36.9441 78.8059 35.5727 80.1776 33.8809 80.1776C32.1875 80.1776 30.8162 78.8059 30.8162 77.112C30.8162 75.4196 32.1875 74.0479 33.8809 74.0479C35.5727 74.0479 36.9441 75.4196 36.9441 77.112Z" fill="white"/>
</svg>
