<svg width="100" height="100" viewBox="0 0 100 100" fill="none" xmlns="http://www.w3.org/2000/svg">
<rect opacity="0.0229128" x="0.5" y="0.5" width="99" height="99" stroke="#2B2B2B"/>
<path fill-rule="evenodd" clip-rule="evenodd" d="M70.9777 30.5425C69.864 30.5425 68.7516 30.6624 67.6641 30.898C64.1875 22.7966 56.0762 17.3916 47.2989 17.3916C36.3466 17.3916 27.239 25.1568 25.4247 35.9406C25.3998 35.9406 25.3736 35.9406 25.3487 35.9406C18.1867 35.9406 12.3596 41.8058 12.3596 49.0144C12.3596 56.2229 18.1867 62.0867 25.3487 62.0867H70.9777C79.6155 62.0867 86.6434 55.0104 86.6434 46.3139C86.6434 37.6174 79.6155 30.5425 70.9777 30.5425ZM83.4929 46.3139C83.4929 53.2689 77.8799 58.9261 70.9777 58.9261H25.3487C19.9237 58.9261 15.5102 54.48 15.5102 49.0144C15.5102 43.5473 19.9237 39.0999 25.3487 39.0999C25.7107 39.0999 26.1059 39.1288 26.5923 39.188L28.1939 39.3892L28.3542 37.78C29.3435 27.9578 37.488 20.5508 47.2989 20.5508C55.3259 20.5508 62.5293 25.6803 65.2252 33.316L65.7351 34.7571L67.1874 34.2928C68.42 33.9015 69.6954 33.7031 70.9777 33.7031C77.8799 33.7031 83.4929 39.3603 83.4929 46.3139Z" fill="white"/>
<path fill-rule="evenodd" clip-rule="evenodd" d="M25.5686 70.7844C26.8951 73.1997 28.2217 75.6135 29.5496 78.0288C30.4726 79.7097 33.0511 78.2093 32.1267 76.527C30.8001 74.1118 29.4736 71.6965 28.1457 69.2813C27.2226 67.6004 24.6441 69.1008 25.5686 70.7844Z" fill="white"/>
<path fill-rule="evenodd" clip-rule="evenodd" d="M40.3581 70.7844C41.6846 73.1997 43.0112 75.6135 44.3377 78.0288C45.2622 79.7097 47.8406 78.2093 46.9162 76.527C45.5896 74.1118 44.2631 71.6965 42.9352 69.2813C42.0121 67.6004 39.4323 69.1008 40.3581 70.7844Z" fill="white"/>
<path fill-rule="evenodd" clip-rule="evenodd" d="M55.9022 70.7844C57.2302 73.1997 58.5567 75.6135 59.8832 78.0288C60.8063 79.7097 63.3862 78.2093 62.4617 76.527C61.1352 74.1118 59.8072 71.6965 58.4807 69.2813C57.5576 67.6004 54.9778 69.1008 55.9022 70.7844Z" fill="white"/>
<path fill-rule="evenodd" clip-rule="evenodd" d="M70.9253 70.7844C72.2518 73.1997 73.5797 75.6135 74.9063 78.0288C75.8293 79.7097 78.4092 78.2093 77.4847 76.527C76.1568 74.1118 74.8303 71.6965 73.5037 69.2813C72.5793 67.6004 70.0008 69.1008 70.9253 70.7844Z" fill="white"/>
</svg>
