<svg width="100" height="100" viewBox="0 0 100 100" fill="none" xmlns="http://www.w3.org/2000/svg">
<rect opacity="0.0229128" x="-0.5" y="0.5" width="99" height="99" transform="matrix(-1 0 0 1 99 0)" stroke="#2B2B2B"/>
<path fill-rule="evenodd" clip-rule="evenodd" d="M27.9643 22.2658C29.0987 22.2658 30.2317 22.3862 31.3393 22.627C34.8803 14.3936 43.1418 8.90137 52.0817 8.90137C63.2368 8.90137 72.5144 16.7932 74.3609 27.751C74.3877 27.751 74.413 27.751 74.4397 27.751C81.7329 27.751 87.668 33.7108 87.668 41.0356C87.668 48.359 81.7329 54.3174 74.4397 54.3174H27.9643C19.1666 54.3174 12.0086 47.1284 12.0086 38.2916C12.0086 29.4548 19.1666 22.2658 27.9643 22.2658ZM15.2175 38.2916C15.2175 45.3588 20.9357 51.1072 27.9643 51.1072H74.4397C79.9638 51.1072 84.4591 46.5894 84.4591 41.0356C84.4591 35.4804 79.9638 30.9612 74.4397 30.9612C74.071 30.9612 73.6671 30.9892 73.1717 31.0508L71.5405 31.2538L71.3772 29.6186C70.3695 19.6394 62.0743 12.113 52.0817 12.113C43.9075 12.113 36.5692 17.3252 33.8234 25.084L33.304 26.5484L31.8249 26.0766C30.5694 25.6776 29.2718 25.476 27.9643 25.476C20.9357 25.476 15.2175 31.2244 15.2175 38.2916Z" fill="white"/>
<path fill-rule="evenodd" clip-rule="evenodd" d="M74.2144 63.1561C72.8633 65.6103 71.5122 68.0645 70.1611 70.5187C69.2195 72.2267 66.5933 70.7021 67.5349 68.9913C68.886 66.5371 70.2385 64.0843 71.5896 61.6301C72.5298 59.9221 75.1574 61.4467 74.2144 63.1561Z" fill="white"/>
<path fill-rule="evenodd" clip-rule="evenodd" d="M28.0176 63.1561C26.6665 65.6103 25.3154 68.0645 23.9629 70.5187C23.0227 72.2267 20.3965 70.7021 21.3381 68.9913C22.6892 66.5371 24.0403 64.0843 25.3928 61.6301C26.333 59.9221 28.9592 61.4467 28.0176 63.1561Z" fill="white"/>
<path fill-rule="evenodd" clip-rule="evenodd" d="M31.4125 71.2391C30.06 73.6933 28.7089 76.1475 27.3577 78.6003C26.4162 80.3083 23.79 78.7837 24.7315 77.0743C26.0826 74.6201 27.4337 72.1659 28.7863 69.7131C29.7264 68.0051 32.354 69.5297 31.4125 71.2391Z" fill="white"/>
<path fill-rule="evenodd" clip-rule="evenodd" d="M84.8192 62.0598C83.4667 64.5126 82.1156 66.9668 80.7645 69.421C79.8229 71.129 77.1967 69.6044 78.1383 67.8936C79.4894 65.4408 80.8419 62.9866 82.193 60.5324C83.1331 58.8244 85.7608 60.349 84.8192 62.0598Z" fill="white"/>
<path fill-rule="evenodd" clip-rule="evenodd" d="M74.2144 73.5393C72.8633 75.9921 71.5122 78.4463 70.1611 80.9005C69.2195 82.6085 66.5933 81.0839 67.5349 79.3731C68.886 76.9203 70.2385 74.4661 71.5896 72.0119C72.5298 70.3039 75.1574 71.8285 74.2144 73.5393Z" fill="white"/>
<path fill-rule="evenodd" clip-rule="evenodd" d="M44.877 54.166L45.2007 54.3172H44.8052L44.877 54.166Z" fill="white"/>
<path fill-rule="evenodd" clip-rule="evenodd" d="M59.5478 54.0322L60.001 54.3178H59.3648L59.5478 54.0322Z" fill="white"/>
<path fill-rule="evenodd" clip-rule="evenodd" d="M38.4677 73.4414H43.3641C44.0129 73.4414 44.6153 73.762 44.9755 74.2996C45.3358 74.8372 45.402 75.5148 45.1515 76.1126L40.5549 87.0508L59.2762 67.3024H54.5895C53.883 67.3024 53.2328 66.9188 52.8922 66.3028C52.5516 65.6854 52.5755 64.9336 52.9555 64.34L57.5859 57.1006H60.4683L55.4931 64.8818H60.4233C61.1987 64.8818 61.8968 65.3382 62.2036 66.0452C62.509 66.7522 62.3641 67.5712 61.8335 68.1312L40.4578 90.6796C40.075 91.0842 39.5697 91.2928 39.056 91.2928C38.6915 91.2928 38.3241 91.1878 37.9948 90.975C37.1954 90.4598 36.8928 89.4896 37.2601 88.6146L42.6195 75.8606H37.6866C37.0195 75.8606 36.4073 75.526 36.0498 74.966C35.6937 74.4046 35.6501 73.7116 35.933 73.1152L43.4921 57.1006H46.1803L38.4677 73.4414Z" fill="white"/>
</svg>
