<svg width="100" height="100" viewBox="0 0 100 100" fill="none" xmlns="http://www.w3.org/2000/svg">
<rect opacity="0.0229128" x="-0.5" y="0.5" width="99" height="99" transform="matrix(-1 0 0 1 99 0)" stroke="#2B2B2B"/>
<path fill-rule="evenodd" clip-rule="evenodd" d="M68.2593 56.9288H90.6745C94.432 56.9288 97.4881 53.5807 97.4881 49.4636C97.4881 45.345 94.432 41.9952 90.6745 41.9952C90.423 41.9952 90.1487 42.0166 89.8123 42.0626L88.7033 42.2137L88.5911 41.0013C87.9063 33.6035 82.2654 28.0244 75.4699 28.0244C69.9108 28.0244 64.9214 31.8884 63.0548 37.6384L62.7017 38.7243L61.6957 38.3744C60.8426 38.0803 59.9593 37.9308 59.0699 37.9308C58.8942 37.9308 58.723 37.9472 58.5487 37.9587C58.4639 37.1915 58.3942 36.4062 58.3563 35.5897C58.5926 35.5733 58.829 35.5503 59.0699 35.5503C59.8411 35.5503 60.6123 35.6407 61.3654 35.8181C63.773 29.7165 69.3911 25.6455 75.4699 25.6455C83.0563 25.6455 89.3654 31.4941 90.6214 39.6164C90.6381 39.6164 90.6563 39.6164 90.6745 39.6164C95.6351 39.6164 99.6699 44.034 99.6699 49.4636C99.6699 54.8916 95.6351 59.3093 90.6745 59.3093H71.7336L71.7623 59.3027C71.7623 59.3027 70.2578 58.5881 68.2593 56.9288Z" fill="white"/>
<path fill-rule="evenodd" clip-rule="evenodd" d="M65.9909 79.0724C68.4939 79.1857 71.0545 78.9919 73.6833 78.4005C78.7697 77.2554 82.8742 74.18 86.4212 70.1665C86.9439 69.575 87.4394 68.9557 88.006 68.2805C75.8773 69.6637 65.7606 65.6897 58.4939 55.0752C51.2727 44.5264 50.4833 32.9097 55.047 20.7575C54.9833 20.7707 54.9045 20.7674 54.8424 20.8019C47.7985 24.6248 42.5576 30.25 39.9863 38.3788C39.1591 38.116 38.2591 37.8876 37.3485 37.748C37.4379 37.4588 37.5121 37.173 37.6091 36.8822C41.0606 26.4796 48.356 20.084 57.6969 16.2183C58.3227 15.9587 58.9182 16.0622 59.3591 16.6438C59.7985 17.2237 59.7879 17.8562 59.4257 18.4887C59.3212 18.6678 59.2197 18.8502 59.1197 19.0342C55.8969 24.8778 54.3106 31.1913 55.1121 37.973C56.4833 49.5667 62.0348 58.0832 71.8273 63.0759C77.8879 66.1661 84.2666 66.2827 90.706 64.5479C91.6182 64.3031 92.256 64.451 92.6379 65.0835C93.0227 65.7209 92.9803 66.3287 92.35 67.1485C90.9273 69 89.5621 70.9205 88.003 72.6324C81.4666 79.8018 73.5803 83.0251 64.2621 81.9753C64.1076 81.9457 63.9515 81.9195 63.7954 81.8915C64.5742 81.1145 65.3363 80.1895 65.9909 79.0724Z" fill="white"/>
<path fill-rule="evenodd" clip-rule="evenodd" d="M14.2108 54.4496C15.1562 54.4496 16.1017 54.5597 17.0244 54.7782C19.9744 47.2999 26.8593 42.3105 34.3093 42.3105C43.6062 42.3105 51.3365 49.4783 52.8759 59.434C52.8972 59.4324 52.9199 59.4324 52.9411 59.4324C59.0199 59.4324 63.9653 64.8473 63.9653 71.5008C63.9653 78.1528 59.0199 83.566 52.9411 83.566H14.2108C6.87897 83.566 0.913818 77.034 0.913818 69.007C0.913818 60.9816 6.87897 54.4496 14.2108 54.4496ZM3.58806 69.007C3.58806 75.4273 8.35321 80.6483 14.2108 80.6483H52.9411C57.5456 80.6483 61.2911 76.5444 61.2911 71.5008C61.2911 66.454 57.5456 62.3485 52.9411 62.3485C52.6335 62.3485 52.2987 62.3748 51.885 62.4306L50.5259 62.6146L50.3896 61.1295C49.5502 52.0642 42.6365 45.2283 34.3093 45.2283C27.4972 45.2283 21.382 49.963 19.0941 57.0108L18.6608 58.3399L17.429 57.9111C16.3835 57.5497 15.3002 57.3673 14.2108 57.3673C8.35321 57.3673 3.58806 62.5883 3.58806 69.007Z" fill="white"/>
</svg>
