<svg width="100" height="100" viewBox="0 0 100 100" fill="none" xmlns="http://www.w3.org/2000/svg">
<g clip-path="url(#clip0)">
<rect opacity="0.0229128" x="-0.5" y="0.5" width="97.0392" height="99" transform="matrix(-1 0 0 1 99 0)" stroke="#2B2B2B"/>
</g>
<path fill-rule="evenodd" clip-rule="evenodd" d="M68.885 77.0894C71.4973 77.2011 74.1697 77.0117 76.9148 76.4272C82.2215 75.2987 86.5052 72.2679 90.207 68.3125C90.7525 67.7297 91.2712 67.1209 91.8626 66.4539C79.2044 67.8187 68.6447 63.9006 61.0624 53.44C53.5245 43.0441 52.7006 31.5958 57.465 19.6197C57.397 19.6326 57.3148 19.631 57.25 19.6634C49.9002 23.4325 44.429 28.9745 41.7456 36.9856C40.8822 36.7282 39.9429 36.5015 38.9925 36.3655C39.0858 36.0805 39.1649 35.7972 39.2645 35.5122C42.8667 25.2588 50.4805 18.9575 60.2291 15.1462C60.8822 14.8921 61.5036 14.9924 61.9638 15.5672C62.4239 16.1371 62.4113 16.7621 62.0333 17.3838C61.9242 17.5619 61.8183 17.7416 61.7139 17.9213C58.3506 23.6803 56.695 29.9022 57.5315 36.5857C58.9625 48.0113 64.7563 56.4044 74.9761 61.3247C81.3012 64.3702 87.9584 64.4867 94.6788 62.777C95.6308 62.5342 96.2965 62.6815 96.695 63.3032C97.0966 63.9314 97.0523 64.5321 96.3945 65.3383C94.9097 67.1646 93.485 69.0573 91.8578 70.7427C85.0362 77.8083 76.8056 80.9864 67.0808 79.9502C66.9195 79.9211 66.7566 79.8968 66.5938 79.8693C67.4065 79.1019 68.2019 78.192 68.885 77.0894Z" fill="white"/>
<path fill-rule="evenodd" clip-rule="evenodd" d="M14.845 52.8245C15.8333 52.8245 16.8184 52.9329 17.7814 53.1483C20.8602 45.7768 28.0455 40.8613 35.8206 40.8613C45.5234 40.8613 53.591 47.9252 55.1976 57.735C55.2198 57.735 55.2435 57.735 55.2656 57.735C61.6097 57.735 66.771 63.0698 66.771 69.6269C66.771 76.1841 61.6097 81.5172 55.2656 81.5172H14.845C7.1932 81.5172 0.969292 75.0815 0.969292 67.1709C0.969292 59.2602 7.1932 52.8245 14.845 52.8245ZM3.76024 67.1709C3.76024 73.4965 8.73178 78.6434 14.845 78.6434H55.2656C60.0711 78.6434 63.98 74.599 63.98 69.6269C63.98 64.6532 60.0711 60.6089 55.2656 60.6089C54.9446 60.6089 54.5952 60.6348 54.1635 60.6882L52.7451 60.8711L52.6027 59.4075C51.7267 50.472 44.5129 43.7351 35.8206 43.7351C28.7112 43.7351 22.3292 48.4012 19.9415 55.3469L19.4892 56.6568L18.2036 56.2358C17.1125 55.878 15.9819 55.6983 14.845 55.6983C8.73178 55.6983 3.76024 60.8436 3.76024 67.1709Z" fill="white"/>
<defs>
<clipPath id="clip0">
<rect width="98.0392" height="100" fill="white" transform="matrix(-1 0 0 1 100 0)"/>
</clipPath>
</defs>
</svg>
