<svg width="100" height="100" viewBox="0 0 100 100" fill="none" xmlns="http://www.w3.org/2000/svg">
<rect opacity="0.0229128" x="-0.5" y="0.5" width="98.2294" height="99" transform="matrix(-1 0 0 1 99 0)" stroke="#2B2B2B"/>
<g clip-path="url(#clip0)">
<path fill-rule="evenodd" clip-rule="evenodd" d="M71.8314 73.1876C74.1762 73.2906 76.5749 73.1159 79.0389 72.5768C83.8023 71.536 87.6473 68.7406 90.97 65.0926C91.4597 64.555 91.9252 63.9936 92.4561 63.3783C81.0941 64.6372 71.6157 61.0235 64.8099 51.3755C58.0438 41.7873 57.3043 31.2284 61.5808 20.1828C61.5198 20.1947 61.446 20.1933 61.3878 20.2231C54.7906 23.6994 49.8797 28.8109 47.471 36.1995C46.6961 35.9621 45.853 35.753 44.9999 35.6276C45.0837 35.3648 45.1546 35.1035 45.2441 34.8406C48.4774 25.3838 55.3115 19.5721 64.0619 16.0569C64.6481 15.8225 65.2059 15.9151 65.6189 16.4452C66.0319 16.9708 66.0206 17.5472 65.6813 18.1206C65.5834 18.2849 65.4883 18.4506 65.3946 18.6164C62.3757 23.9279 60.8896 29.6665 61.6404 35.8307C62.925 46.3686 68.1255 54.1097 77.2988 58.6477C82.9762 61.4565 88.9517 61.564 94.9839 59.9871C95.8384 59.7632 96.4359 59.899 96.7936 60.4725C97.1541 61.0518 97.1144 61.6058 96.5239 62.3495C95.1912 64.0339 93.9123 65.7795 92.4518 67.334C86.3287 73.8506 78.941 76.7818 70.2119 75.8262C70.0672 75.7993 69.921 75.7769 69.7748 75.7515C70.5043 75.0437 71.2183 74.2045 71.8314 73.1876Z" fill="white"/>
<path fill-rule="evenodd" clip-rule="evenodd" d="M23.3248 50.8081C24.2119 50.8081 25.0962 50.9082 25.9606 51.1068C28.724 44.308 35.1736 39.7744 42.1526 39.7744C50.8617 39.7744 58.1033 46.2895 59.5453 55.3372C59.5652 55.3372 59.5865 55.3372 59.6064 55.3372C65.3008 55.3372 69.9336 60.2575 69.9336 66.3052C69.9336 72.3529 65.3008 77.2717 59.6064 77.2717H23.3248C16.4566 77.2717 10.87 71.336 10.87 64.0399C10.87 56.7438 16.4566 50.8081 23.3248 50.8081ZM13.3751 64.0399C13.3751 69.8741 17.8376 74.6211 23.3248 74.6211H59.6064C63.9198 74.6211 67.4284 70.891 67.4284 66.3052C67.4284 61.7179 63.9198 57.9877 59.6064 57.9877C59.3182 57.9877 59.0046 58.0116 58.6171 58.0609L57.3439 58.2296L57.2162 56.8797C56.4299 48.6384 49.9548 42.425 42.1526 42.425C35.7711 42.425 30.0426 46.7285 27.8994 53.1346L27.4935 54.3427L26.3395 53.9544C25.3602 53.6244 24.3453 53.4586 23.3248 53.4586C17.8376 53.4586 13.3751 58.2042 13.3751 64.0399Z" fill="white"/>
</g>
<defs>
<clipPath id="clip0">
<rect width="88" height="62.7169" fill="white" transform="matrix(-1 0 0 1 98 15)"/>
</clipPath>
</defs>
</svg>
