<svg width="100" height="100" viewBox="0 0 100 100" fill="none" xmlns="http://www.w3.org/2000/svg">
<rect opacity="0.0229128" x="0.5" y="0.5" width="99" height="99" stroke="#2B2B2B"/>
<path fill-rule="evenodd" clip-rule="evenodd" d="M20.7887 42.0433H14.3363C10.1305 42.0433 6.70755 38.5396 6.70755 34.2331C6.70755 29.9253 10.1305 26.4216 14.3363 26.4216C14.617 26.4216 14.9231 26.4434 15.3018 26.491L16.5426 26.6488L16.6675 25.3807C17.4343 17.6413 23.7484 11.8054 31.357 11.8054C34.6605 11.8054 37.7786 12.9538 40.2951 14.9227C40.839 14.2968 41.4083 13.7035 42.0099 13.1525C39.0207 10.7346 35.2768 9.31543 31.357 9.31543C22.8635 9.31543 15.8014 15.4343 14.3954 23.9316C14.3753 23.9316 14.3565 23.9316 14.3363 23.9316C8.78361 23.9316 4.26489 28.5537 4.26489 34.2331C4.26489 39.9125 8.78361 44.5333 14.3363 44.5333H20.8451C20.7874 44.0176 20.7485 43.4965 20.7485 42.9631C20.7485 42.6529 20.7686 42.3481 20.7887 42.0433Z" fill="white"/>
<path fill-rule="evenodd" clip-rule="evenodd" d="M80.9932 23.9582C79.9108 23.9582 78.8298 24.0765 77.773 24.3106C74.3944 16.3086 66.5118 10.9707 57.982 10.9707C47.3385 10.9707 38.4877 18.6394 36.7245 29.2892C36.7004 29.2892 36.6749 29.2892 36.6507 29.2892C29.6907 29.2892 24.0278 35.0815 24.0278 42.2005C24.0278 49.3194 29.6907 55.109 36.6507 55.109H80.9932C89.3874 55.109 96.2171 48.122 96.2171 39.5336C96.2171 30.9451 89.3874 23.9582 80.9932 23.9582ZM93.1554 39.5336C93.1554 46.4022 87.7007 51.989 80.9932 51.989H36.6507C31.3786 51.989 27.0895 47.5982 27.0895 42.2005C27.0895 36.8014 31.3786 32.4092 36.6507 32.4092C37.0025 32.4092 37.3866 32.4378 37.8593 32.4963L39.4156 32.6949L39.5714 31.1057C40.5329 21.4056 48.4477 14.0907 57.982 14.0907C65.7826 14.0907 72.7829 19.1564 75.4029 26.6972L75.8984 28.1204L77.3097 27.6619C78.5075 27.2754 79.747 27.0795 80.9932 27.0795C87.7007 27.0795 93.1554 32.6664 93.1554 39.5336Z" fill="white"/>
<path fill-rule="evenodd" clip-rule="evenodd" d="M36.8643 63.7001C38.1534 66.0839 39.4426 68.4692 40.7331 70.8544C41.6301 72.5144 44.1359 71.0327 43.2375 69.3699C41.9483 66.9861 40.6592 64.6008 39.3687 62.2156C38.4717 60.557 35.9659 62.0387 36.8643 63.7001Z" fill="white"/>
<path fill-rule="evenodd" clip-rule="evenodd" d="M80.9422 63.7001C82.2313 66.0839 83.5218 68.4692 84.8109 70.8544C85.708 72.5144 88.2151 71.0327 87.3167 69.3699C86.0262 66.9861 84.7371 64.6008 83.4479 62.2156C82.5496 60.557 80.0438 62.0387 80.9422 63.7001Z" fill="white"/>
<path fill-rule="evenodd" clip-rule="evenodd" d="M77.7044 71.5551C78.9935 73.9403 80.2827 76.3256 81.5731 78.7108C82.4702 80.3694 84.9759 78.8877 84.0776 77.2263C82.7884 74.8411 81.4993 72.4572 80.2088 70.072C79.3118 68.412 76.806 69.8937 77.7044 71.5551Z" fill="white"/>
<path fill-rule="evenodd" clip-rule="evenodd" d="M14.9353 54.1821C16.2257 56.5673 17.5149 58.9525 18.804 61.3377C19.7011 62.9964 22.2082 61.5146 21.3098 59.8533C20.0207 57.468 18.7302 55.0842 17.441 52.6989C16.544 51.0389 14.0369 52.5207 14.9353 54.1821Z" fill="white"/>
<path fill-rule="evenodd" clip-rule="evenodd" d="M26.7471 62.6333C28.0362 65.0185 29.3254 67.4024 30.6159 69.7876C31.5129 71.4476 34.0187 69.9659 33.1203 68.3045C31.8312 65.9193 30.542 63.5341 29.2515 61.1488C28.3545 59.4888 25.8487 60.9719 26.7471 62.6333Z" fill="white"/>
<path fill-rule="evenodd" clip-rule="evenodd" d="M23.3684 72.1498C24.6576 74.5351 25.9467 76.9203 27.2372 79.3055C28.1342 80.9642 30.6413 79.4824 29.7416 77.821C28.4525 75.4358 27.1633 73.0506 25.8742 70.6667C24.9758 69.0067 22.4701 70.4885 23.3684 72.1498Z" fill="white"/>
<path fill-rule="evenodd" clip-rule="evenodd" d="M36.8643 73.7905C38.1534 76.1744 39.4426 78.5596 40.7331 80.9449C41.6301 82.6049 44.1359 81.1231 43.2375 79.4604C41.9483 77.0765 40.6592 74.6913 39.3687 72.306C38.4717 70.646 35.9659 72.1292 36.8643 73.7905Z" fill="white"/>
<path fill-rule="evenodd" clip-rule="evenodd" d="M64.856 54.9629L64.5471 55.1085H64.9245L64.856 54.9629Z" fill="white"/>
<path fill-rule="evenodd" clip-rule="evenodd" d="M50.8582 54.8311L50.4258 55.1086H51.0328L50.8582 54.8311Z" fill="white"/>
<path fill-rule="evenodd" clip-rule="evenodd" d="M70.9728 73.6951H66.2996C65.6806 73.6951 65.1058 74.0066 64.7621 74.5305C64.4196 75.053 64.3552 75.7115 64.5942 76.2912L68.9813 86.9233L51.1173 67.7286H55.589C56.2631 67.7286 56.8849 67.3558 57.2085 66.7571C57.5335 66.157 57.5106 65.4277 57.1481 64.8494L52.7314 57.8135H49.9799L54.7269 65.376H50.0229C49.2843 65.376 48.6169 65.8209 48.3255 66.5067C48.0328 67.1938 48.1711 67.9898 48.6773 68.5341L69.0726 90.4488C69.4379 90.842 69.92 91.0448 70.4115 91.0448C70.7579 91.0448 71.1084 90.9441 71.424 90.7359C72.1854 90.2352 72.4741 89.2922 72.1236 88.4418L67.01 76.0476H71.7167C72.3532 76.0476 72.9374 75.7211 73.2785 75.1768C73.6182 74.6325 73.6612 73.959 73.3899 73.378L66.1774 57.8135H63.6139L70.9728 73.6951Z" fill="white"/>
</svg>
