<svg width="100" height="100" viewBox="0 0 100 100" fill="none" xmlns="http://www.w3.org/2000/svg">
<rect opacity="0.0229128" x="0.5" y="0.5" width="99" height="99" stroke="#2B2B2B"/>
<g clip-path="url(#clip0)">
<path fill-rule="evenodd" clip-rule="evenodd" d="M76.829 54.1398C75.8823 54.1398 74.937 54.2417 74.013 54.4441C71.0574 47.5194 64.1631 42.8994 56.7028 42.8994C47.393 42.8994 39.6521 49.5366 38.1105 58.7537C38.0893 58.7537 38.0681 58.7537 38.0453 58.7537C31.9581 58.7537 27.0059 63.7662 27.0059 69.9287C27.0059 76.0882 31.9581 81.0992 38.0453 81.0992H76.829C84.171 81.0992 90.1443 75.0522 90.1443 67.6195C90.1443 60.1867 84.171 54.1398 76.829 54.1398ZM87.4664 67.6195C87.4664 73.563 82.6947 78.399 76.829 78.399H38.0453C33.4344 78.399 29.6838 74.5989 29.6838 69.9287C29.6838 65.2555 33.4344 61.4539 38.0453 61.4539C38.3533 61.4539 38.6901 61.4783 39.1043 61.53L40.4653 61.7004L40.6019 60.3252C41.4409 51.931 48.3641 45.6011 56.7028 45.6011C63.5243 45.6011 69.6479 49.9838 71.9405 56.5099L72.3729 57.7421L73.6064 57.3451C74.6548 57.0104 75.7381 56.8415 76.829 56.8415C82.6947 56.8415 87.4664 61.676 87.4664 67.6195Z" fill="white"/>
<path fill-rule="evenodd" clip-rule="evenodd" d="M22.2265 36.8875C22.7561 37.4838 23.6755 37.5386 24.2703 37.0092C24.8665 36.4783 24.9212 35.5564 24.3917 34.9601L15.8845 25.3535C15.3565 24.7572 14.437 24.7024 13.8408 25.2333C13.246 25.7627 13.1914 26.6846 13.7194 27.2824L22.2265 36.8875Z" fill="white"/>
<path fill-rule="evenodd" clip-rule="evenodd" d="M21.2099 60.6442L11.8303 69.3944C11.2477 69.939 11.2143 70.8608 11.756 71.4465C12.2992 72.0307 13.2201 72.0641 13.8028 71.5195L23.1823 62.7694C23.765 62.2263 23.7983 61.3029 23.2567 60.7188C22.7135 60.1346 21.7926 60.1011 21.2099 60.6442Z" fill="white"/>
<path fill-rule="evenodd" clip-rule="evenodd" d="M58.8754 27.2744C58.3322 26.6903 57.4112 26.6568 56.8286 27.1999L47.449 35.95C46.8664 36.4946 46.833 37.4165 47.3762 38.0022C47.9179 38.5863 48.8388 38.6198 49.4214 38.0752L58.801 29.3251C59.3836 28.782 59.417 27.8586 58.8754 27.2744Z" fill="white"/>
<path fill-rule="evenodd" clip-rule="evenodd" d="M36.7071 32.9336C37.5007 32.996 38.2001 32.3951 38.2623 31.5995L39.2622 18.7938C39.3244 17.9981 38.7251 17.2953 37.9316 17.233C37.138 17.1706 36.4371 17.7715 36.3749 18.5671L35.3765 31.3728C35.3143 32.17 35.9121 32.8713 36.7071 32.9336Z" fill="white"/>
<path fill-rule="evenodd" clip-rule="evenodd" d="M19.013 48.0209C19.0858 47.2268 18.4971 46.5164 17.7051 46.4418L4.94818 45.2522C4.15466 45.1792 3.44611 45.7679 3.37328 46.5635C3.29893 47.3591 3.88762 48.0695 4.67962 48.1426L17.4366 49.3322C18.2301 49.4067 18.9387 48.8165 19.013 48.0209Z" fill="white"/>
<path fill-rule="evenodd" clip-rule="evenodd" d="M24.5008 48.4885C25.0273 42.6074 30.2269 38.2521 36.0926 38.78C39.0557 39.0477 41.6275 40.5111 43.3814 42.6515C44.0202 42.0217 44.7166 41.4224 45.4722 40.8717C43.2676 38.2004 40.045 36.3749 36.3368 36.0418C28.9661 35.3785 22.4313 40.8519 21.7698 48.2421C21.3419 53.0187 23.4782 57.4334 27.0271 60.1457C27.4276 59.4551 27.9677 58.7006 28.6854 57.9612C25.8618 55.8026 24.161 52.2886 24.5008 48.4885Z" fill="white"/>
</g>
<defs>
<clipPath id="clip0">
<rect width="88" height="64.4651" fill="white" transform="translate(3 17)"/>
</clipPath>
</defs>
</svg>
