<svg width="100" height="100" viewBox="0 0 100 100" fill="none" xmlns="http://www.w3.org/2000/svg">
<rect opacity="0.0229128" x="0.5" y="0.5" width="98.0099" height="99" stroke="#2B2B2B"/>
<g clip-path="url(#clip0)">
<path fill-rule="evenodd" clip-rule="evenodd" d="M84.2153 53.4474C83.1608 53.4474 82.1079 53.5612 81.0787 53.787C77.7866 46.0592 70.1073 40.9033 61.7975 40.9033C51.4277 40.9033 42.8054 48.3103 41.0883 58.5965C41.0647 58.5965 41.041 58.5965 41.0157 58.5965C34.2354 58.5965 28.7192 64.1903 28.7192 71.0676C28.7192 77.9415 34.2354 83.5336 41.0157 83.5336H84.2153C92.3932 83.5336 99.0468 76.7854 99.0468 68.4905C99.0468 60.1957 92.3932 53.4474 84.2153 53.4474ZM96.0639 68.4905C96.0639 75.1233 90.7489 80.5202 84.2153 80.5202H41.0157C35.8798 80.5202 31.7021 76.2795 31.7021 71.0676C31.7021 65.8523 35.8798 61.6099 41.0157 61.6099C41.3587 61.6099 41.7339 61.637 42.1953 61.6947L43.7112 61.8849L43.8633 60.3502C44.7979 50.9824 52.5093 43.9184 61.7975 43.9184C69.3958 43.9184 76.2166 48.8094 78.7702 56.0924L79.2518 57.4675L80.6258 57.0244C81.7936 56.6509 83.0002 56.4625 84.2153 56.4625C90.7489 56.4625 96.0639 61.8577 96.0639 68.4905Z" fill="white"/>
<path fill-rule="evenodd" clip-rule="evenodd" d="M23.3957 34.1937C23.9855 34.8592 25.0096 34.9203 25.6721 34.3295C26.3363 33.737 26.3971 32.7082 25.8073 32.0427L16.3315 21.3219C15.7434 20.6564 14.7192 20.5953 14.0551 21.1878C13.3926 21.7786 13.3318 22.8074 13.9199 23.4746L23.3957 34.1937Z" fill="white"/>
<path fill-rule="evenodd" clip-rule="evenodd" d="M22.2634 60.7066L11.8158 70.4716C11.1668 71.0794 11.1297 72.1082 11.733 72.7618C12.338 73.4137 13.3638 73.4511 14.0128 72.8433L24.4604 63.0783C25.1093 62.4722 25.1465 61.4417 24.5432 60.7898C23.9381 60.1379 22.9123 60.1006 22.2634 60.7066Z" fill="white"/>
<path fill-rule="evenodd" clip-rule="evenodd" d="M64.2177 23.4666C63.6127 22.8147 62.5869 22.7773 61.9379 23.3834L51.4904 33.1484C50.8414 33.7562 50.8042 34.785 51.4092 35.4386C52.0126 36.0905 53.0384 36.1278 53.6874 35.5201L64.1349 25.755C64.7839 25.149 64.8211 24.1185 64.2177 23.4666Z" fill="white"/>
<path fill-rule="evenodd" clip-rule="evenodd" d="M39.5252 29.7815C40.409 29.8512 41.1881 29.1806 41.2574 28.2927L42.3711 14.0017C42.4404 13.1138 41.7729 12.3295 40.889 12.2598C40.0051 12.1902 39.2243 12.8608 39.1551 13.7487L38.043 28.0397C37.9737 28.9293 38.6396 29.7119 39.5252 29.7815Z" fill="white"/>
<path fill-rule="evenodd" clip-rule="evenodd" d="M19.8162 46.6191C19.8973 45.7329 19.2416 44.9401 18.3594 44.8569L4.14995 43.5293C3.26608 43.4478 2.47685 44.1048 2.39573 44.9927C2.31292 45.8806 2.96864 46.6734 3.85082 46.7549L18.0603 48.0825C18.9442 48.1656 19.7334 47.5069 19.8162 46.6191Z" fill="white"/>
<path fill-rule="evenodd" clip-rule="evenodd" d="M25.9291 47.1406C26.5155 40.5774 32.3071 35.7169 38.8406 36.306C42.1412 36.6048 45.0057 38.238 46.9594 40.6266C47.6709 39.9238 48.4466 39.2549 49.2882 38.6403C46.8326 35.6592 43.2431 33.622 39.1127 33.2502C30.9027 32.51 23.6239 38.6183 22.8871 46.8656C22.4105 52.1963 24.79 57.1229 28.7429 60.1499C29.1891 59.3791 29.7907 58.5371 30.5901 57.712C27.445 55.303 25.5505 51.3814 25.9291 47.1406Z" fill="white"/>
</g>
<defs>
<clipPath id="clip0">
<rect width="98.0198" height="73" fill="white" transform="translate(1.97998 12)"/>
</clipPath>
</defs>
</svg>
