<svg width="100" height="100" viewBox="0 0 100 100" fill="none" xmlns="http://www.w3.org/2000/svg">
<rect opacity="0.0229128" x="0.5" y="0.5" width="99" height="99" stroke="#2B2B2B"/>
<path fill-rule="evenodd" clip-rule="evenodd" d="M72.3446 27.6974C71.16 27.6974 69.9785 27.8229 68.8216 28.0739C65.1277 19.4826 56.5077 13.752 47.18 13.752C35.5415 13.752 25.8616 21.9851 23.9354 33.4219C23.9077 33.4203 23.88 33.4203 23.8539 33.4203C16.2431 33.4203 10.0508 39.6407 10.0508 47.2846C10.0508 54.927 16.2431 61.1443 23.8539 61.1443H72.3446C81.5231 61.1443 88.9923 53.6412 88.9923 44.4208C88.9923 35.1989 81.5231 27.6974 72.3446 27.6974ZM85.6431 44.4208C85.6431 51.7953 79.6785 57.7938 72.3446 57.7938H23.8539C18.0892 57.7938 13.3985 53.0795 13.3985 47.2846C13.3985 41.4866 18.0892 36.7708 23.8539 36.7708C24.2385 36.7708 24.6585 36.8014 25.1769 36.8642L26.8769 37.077L27.0492 35.3703C28.0985 24.956 36.7539 17.1025 47.18 17.1025C55.7108 17.1025 63.3662 22.5423 66.2308 30.6377L66.7723 32.1652L68.3154 31.6739C69.6246 31.2576 70.98 31.0479 72.3446 31.0479C79.6785 31.0479 85.6431 37.0463 85.6431 44.4208Z" fill="white"/>
<path fill-rule="evenodd" clip-rule="evenodd" d="M24.0878 70.3676C25.497 72.9284 26.9078 75.4891 28.317 78.0498C29.2985 79.8314 32.0401 78.2411 31.057 76.4564C29.6462 73.8957 28.237 71.335 26.8262 68.7743C25.8447 66.9926 23.1047 68.5845 24.0878 70.3676Z" fill="white"/>
<path fill-rule="evenodd" clip-rule="evenodd" d="M39.803 70.3676C41.2138 72.9284 42.6246 75.4891 44.0338 78.0498C45.0153 79.8314 47.7569 78.2411 46.7738 76.4564C45.363 73.8957 43.9538 71.335 42.543 68.7743C41.5615 66.9926 38.8215 68.5845 39.803 70.3676Z" fill="white"/>
<path fill-rule="evenodd" clip-rule="evenodd" d="M56.323 70.3676C57.7338 72.9284 59.143 75.4891 60.5538 78.0498C61.5353 79.8314 64.2753 78.2411 63.2938 76.4564C61.883 73.8957 60.4723 71.335 59.063 68.7743C58.0815 66.9926 55.34 68.5845 56.323 70.3676Z" fill="white"/>
<path fill-rule="evenodd" clip-rule="evenodd" d="M72.2876 70.3676C73.6984 72.9284 75.1076 75.4891 76.5184 78.0498C77.4999 79.8314 80.2399 78.2411 79.2584 76.4564C77.8476 73.8957 76.4369 71.335 75.0276 68.7743C74.0461 66.9926 71.3046 68.5845 72.2876 70.3676Z" fill="white"/>
<path fill-rule="evenodd" clip-rule="evenodd" d="M37.003 79.4412C38.4122 82.0019 39.823 84.5626 41.2322 87.1233C42.2137 88.905 44.9553 87.3147 43.9722 85.53C42.563 82.9692 41.1522 80.4085 39.7414 77.8478C38.7614 76.0662 36.0199 77.6565 37.003 79.4412Z" fill="white"/>
<path fill-rule="evenodd" clip-rule="evenodd" d="M52.7168 79.436C54.1276 81.9967 55.5368 84.5574 56.9476 87.1181C57.9291 88.9013 60.6691 87.3095 59.6876 85.5248C58.2768 82.9641 56.8661 80.4033 55.4568 77.8426C54.4753 76.061 51.7338 77.6528 52.7168 79.436Z" fill="white"/>
<path fill-rule="evenodd" clip-rule="evenodd" d="M68.7477 78.8025C70.1569 81.3632 71.5677 83.9239 72.9769 86.4847C73.9585 88.2663 76.7 86.676 75.7169 84.8913C74.3062 82.3306 72.8969 79.7699 71.4862 77.2091C70.5046 75.4275 67.7646 77.0178 68.7477 78.8025Z" fill="white"/>
</svg>
