<svg width="100" height="100" viewBox="0 0 100 100" fill="none" xmlns="http://www.w3.org/2000/svg">
<rect opacity="0.0229128" x="0.5" y="0.5" width="99" height="99" stroke="#2B2B2B"/>
<path fill-rule="evenodd" clip-rule="evenodd" d="M69.053 26.7374C67.9246 26.7374 66.7976 26.8599 65.6958 27.1019C62.1734 18.825 53.9554 13.3037 45.0626 13.3037C33.9648 13.3037 24.7374 21.2359 22.9006 32.253C22.874 32.2516 22.8488 32.2516 22.8222 32.2516C15.566 32.2516 9.66357 38.243 9.66357 45.6065C9.66357 52.9701 15.566 58.96 22.8222 58.96H69.053C77.8044 58.96 84.9248 51.7316 84.9248 42.848C84.9248 33.9659 77.8044 26.7374 69.053 26.7374ZM81.7328 42.848C81.7328 49.9526 76.0446 55.7314 69.053 55.7314H22.8222C17.3258 55.7314 12.8556 51.1897 12.8556 45.6065C12.8556 40.0219 17.3258 35.4788 22.8222 35.4788C23.189 35.4788 23.5894 35.5084 24.0836 35.5703L25.7062 35.7744L25.8686 34.1305C26.871 24.0971 35.1212 16.5309 45.0626 16.5309C53.1938 16.5309 60.4934 21.7707 63.2248 29.5705L63.7414 31.0427L65.2114 30.5684C66.4602 30.1687 67.7524 29.966 69.053 29.966C76.0446 29.966 81.7328 35.7448 81.7328 42.848Z" fill="white"/>
<path fill-rule="evenodd" clip-rule="evenodd" d="M53.4375 68.1938C53.4375 69.8728 52.0823 71.2352 50.4121 71.2352C48.7419 71.2352 47.3867 69.8728 47.3867 68.1938C47.3867 66.5147 48.7419 65.1523 50.4121 65.1523C52.0823 65.1523 53.4375 66.5147 53.4375 68.1938Z" fill="white"/>
<path fill-rule="evenodd" clip-rule="evenodd" d="M59.4869 82.79C59.4869 84.4704 58.1331 85.8314 56.4629 85.8314C54.7913 85.8314 53.4375 84.4704 53.4375 82.79C53.4375 81.111 54.7913 79.75 56.4629 79.75C58.1331 79.75 59.4869 81.111 59.4869 82.79Z" fill="white"/>
<path fill-rule="evenodd" clip-rule="evenodd" d="M74.3548 68.1938C74.3548 69.8728 73.001 71.2352 71.3294 71.2352C69.6592 71.2352 68.3054 69.8728 68.3054 68.1938C68.3054 66.5147 69.6592 65.1523 71.3294 65.1523C73.001 65.1523 74.3548 66.5147 74.3548 68.1938Z" fill="white"/>
<path fill-rule="evenodd" clip-rule="evenodd" d="M79.1947 82.79C79.1947 84.4704 77.8409 85.8314 76.1693 85.8314C74.4991 85.8314 73.1453 84.4704 73.1453 82.79C73.1453 81.111 74.4991 79.75 76.1693 79.75C77.8409 79.75 79.1947 81.111 79.1947 82.79Z" fill="white"/>
<path fill-rule="evenodd" clip-rule="evenodd" d="M34.4605 69.5121C34.4605 71.1911 33.1053 72.5535 31.4351 72.5535C29.7649 72.5535 28.4097 71.1911 28.4097 69.5121C28.4097 67.8331 29.7649 66.4707 31.4351 66.4707C33.1053 66.4707 34.4605 67.8331 34.4605 69.5121Z" fill="white"/>
<path fill-rule="evenodd" clip-rule="evenodd" d="M40.5098 84.1084C40.5098 85.7874 39.156 87.1498 37.4844 87.1498C35.8142 87.1498 34.4604 85.7874 34.4604 84.1084C34.4604 82.4293 35.8142 81.0684 37.4844 81.0684C39.156 81.0684 40.5098 82.4293 40.5098 84.1084Z" fill="white"/>
</svg>
