<svg width="100" height="100" viewBox="0 0 100 100" fill="none" xmlns="http://www.w3.org/2000/svg">
<rect opacity="0.0229128" x="0.5" y="0.5" width="99" height="99" stroke="#2B2B2B"/>
<path fill-rule="evenodd" clip-rule="evenodd" d="M74.9506 74.8611L64.0325 64.7974C63.355 64.1736 63.321 63.1175 63.9597 62.4525C64.5985 61.7891 65.677 61.7574 66.3562 62.3828L77.2743 72.4449C77.9518 73.0703 77.9842 74.1248 77.3454 74.7898C76.7083 75.4548 75.6298 75.4865 74.9506 74.8611Z" fill="#FFFFFE"/>
<path fill-rule="evenodd" clip-rule="evenodd" d="M33.2381 36.6656L22.3199 26.6035C21.6408 25.9781 21.6085 24.9236 22.2472 24.2586C22.8859 23.5936 23.9628 23.5619 24.642 24.1873L35.5601 34.251C36.2393 34.8764 36.2716 35.9309 35.6329 36.5959C34.9942 37.2593 33.9156 37.291 33.2381 36.6656Z" fill="#FFFFFE"/>
<path fill-rule="evenodd" clip-rule="evenodd" d="M24.511 74.7361L34.5317 63.8143C35.1542 63.1366 36.2312 63.0796 36.9249 63.6892C37.6186 64.2988 37.6752 65.3533 37.0526 66.0325L27.0319 76.9544C26.4094 77.632 25.3325 77.689 24.6404 77.0794C23.9467 76.4699 23.8885 75.4154 24.511 74.7361Z" fill="#FFFFFE"/>
<path fill-rule="evenodd" clip-rule="evenodd" d="M62.54 33.0154L72.5607 22.0936C73.1832 21.4159 74.2601 21.3589 74.9539 21.9685C75.6459 22.5781 75.7041 23.6326 75.0816 24.3118L65.0609 35.2337C64.4384 35.9113 63.3614 35.9683 62.6677 35.3587C61.9756 34.7492 61.9174 33.6947 62.54 33.0154Z" fill="#FFFFFE"/>
<path fill-rule="evenodd" clip-rule="evenodd" d="M48.8277 84.9571L48.6563 70.2765C48.6466 69.3645 49.4002 68.6092 50.3316 68.5997C51.263 68.5886 52.0343 69.3265 52.0456 70.2385L52.217 84.9191C52.2267 85.8327 51.4732 86.5864 50.5418 86.5975C49.6104 86.6086 48.8391 85.8707 48.8277 84.9571Z" fill="#FFFFFE"/>
<path fill-rule="evenodd" clip-rule="evenodd" d="M47.9901 29.0427L47.8187 14.3621C47.8074 13.4485 48.5609 12.6948 49.4923 12.6837C50.4238 12.6726 51.1951 13.4105 51.2064 14.3241L51.3778 29.0047C51.3891 29.9167 50.634 30.672 49.7026 30.6815C48.7712 30.6926 47.9998 29.9547 47.9901 29.0427Z" fill="#FFFFFE"/>
<path fill-rule="evenodd" clip-rule="evenodd" d="M13.9695 47.959L28.9642 48.0065C29.8956 48.0097 30.6556 48.7586 30.6523 49.6706C30.6507 50.5826 29.8859 51.3267 28.9528 51.3236L13.9598 51.2777C13.0268 51.2745 12.2668 50.5256 12.27 49.6136C12.2733 48.7 13.0381 47.9558 13.9695 47.959Z" fill="#FFFFFE"/>
<path fill-rule="evenodd" clip-rule="evenodd" d="M71.0811 47.957L86.0757 48.003C87.0071 48.0061 87.7671 48.755 87.7639 49.667C87.7607 50.5806 86.9958 51.3248 86.0644 51.3216L71.0698 51.2741C70.1384 51.271 69.3784 50.522 69.3816 49.61C69.3848 48.698 70.1497 47.9539 71.0811 47.957Z" fill="#FFFFFE"/>
<path fill-rule="evenodd" clip-rule="evenodd" d="M49.5974 34.2588C40.9366 34.2588 33.8896 41.159 33.8896 49.6393C33.8896 58.1212 40.9366 65.0214 49.5974 65.0214C58.2598 65.0214 65.3068 58.1212 65.3068 49.6393C65.3068 41.159 58.2598 34.2588 49.5974 34.2588ZM62.097 49.6393C62.097 56.3875 56.4891 61.8785 49.5974 61.8785C42.7056 61.8785 37.0994 56.3875 37.0994 49.6393C37.0994 42.8911 42.7056 37.4001 49.5974 37.4001C56.4891 37.4001 62.097 42.8911 62.097 49.6393Z" fill="#FFFFFE"/>
</svg>
