<svg width="100" height="100" viewBox="0 0 100 100" fill="none" xmlns="http://www.w3.org/2000/svg">
<rect opacity="0.0229128" x="0.5" y="0.5" width="99" height="99" stroke="#2B2B2B"/>
<path fill-rule="evenodd" clip-rule="evenodd" d="M20.7887 46.0433H14.3363C10.1305 46.0433 6.70755 42.5396 6.70755 38.2331C6.70755 33.9253 10.1305 30.4216 14.3363 30.4216C14.617 30.4216 14.9231 30.4434 15.3018 30.491L16.5426 30.6488L16.6675 29.3807C17.4343 21.6413 23.7484 15.8054 31.357 15.8054C34.6605 15.8054 37.7786 16.9538 40.2951 18.9227C40.839 18.2968 41.4083 17.7035 42.0099 17.1525C39.0207 14.7346 35.2768 13.3154 31.357 13.3154C22.8635 13.3154 15.8014 19.4343 14.3954 27.9316C14.3753 27.9316 14.3565 27.9316 14.3363 27.9316C8.78361 27.9316 4.26489 32.5537 4.26489 38.2331C4.26489 43.9125 8.78361 48.5333 14.3363 48.5333H20.8451C20.7874 48.0176 20.7485 47.4965 20.7485 46.9631C20.7485 46.6529 20.7686 46.3481 20.7887 46.0433Z" fill="white"/>
<path fill-rule="evenodd" clip-rule="evenodd" d="M80.9932 27.9582C79.9108 27.9582 78.8298 28.0765 77.773 28.3106C74.3944 20.3086 66.5118 14.9707 57.982 14.9707C47.3385 14.9707 38.4877 22.6394 36.7245 33.2892C36.7004 33.2892 36.6749 33.2892 36.6507 33.2892C29.6907 33.2892 24.0278 39.0815 24.0278 46.2005C24.0278 53.3194 29.6907 59.109 36.6507 59.109H80.9932C89.3874 59.109 96.2171 52.122 96.2171 43.5336C96.2171 34.9451 89.3874 27.9582 80.9932 27.9582ZM93.1554 43.5336C93.1554 50.4022 87.7007 55.989 80.9932 55.989H36.6507C31.3786 55.989 27.0895 51.5982 27.0895 46.2005C27.0895 40.8014 31.3786 36.4092 36.6507 36.4092C37.0025 36.4092 37.3866 36.4378 37.8593 36.4963L39.4156 36.6949L39.5714 35.1057C40.5329 25.4056 48.4477 18.0907 57.982 18.0907C65.7826 18.0907 72.7829 23.1564 75.4029 30.6972L75.8984 32.1204L77.3097 31.6619C78.5075 31.2754 79.747 31.0795 80.9932 31.0795C87.7007 31.0795 93.1554 36.6664 93.1554 43.5336Z" fill="white"/>
<path fill-rule="evenodd" clip-rule="evenodd" d="M36.8643 67.7001C38.1534 70.0839 39.4426 72.4692 40.7331 74.8544C41.6301 76.5144 44.1359 75.0327 43.2375 73.3699C41.9483 70.9861 40.6592 68.6008 39.3687 66.2156C38.4717 64.557 35.9659 66.0387 36.8643 67.7001Z" fill="white"/>
<path fill-rule="evenodd" clip-rule="evenodd" d="M80.9422 67.7001C82.2313 70.0839 83.5218 72.4692 84.8109 74.8544C85.708 76.5144 88.2151 75.0327 87.3167 73.3699C86.0262 70.9861 84.7371 68.6008 83.4479 66.2156C82.5496 64.557 80.0438 66.0387 80.9422 67.7001Z" fill="white"/>
<path fill-rule="evenodd" clip-rule="evenodd" d="M77.7044 75.5551C78.9935 77.9403 80.2827 80.3256 81.5731 82.7108C82.4702 84.3694 84.9759 82.8877 84.0776 81.2263C82.7884 78.8411 81.4993 76.4572 80.2088 74.072C79.3118 72.412 76.806 73.8937 77.7044 75.5551Z" fill="white"/>
<path fill-rule="evenodd" clip-rule="evenodd" d="M14.9353 58.1821C16.2257 60.5673 17.5149 62.9525 18.804 65.3377C19.7011 66.9964 22.2082 65.5146 21.3098 63.8533C20.0207 61.468 18.7302 59.0842 17.441 56.6989C16.544 55.0389 14.0369 56.5207 14.9353 58.1821Z" fill="white"/>
<path fill-rule="evenodd" clip-rule="evenodd" d="M26.7471 66.6333C28.0362 69.0185 29.3254 71.4024 30.6159 73.7876C31.5129 75.4476 34.0187 73.9659 33.1203 72.3045C31.8312 69.9193 30.542 67.5341 29.2515 65.1488C28.3545 63.4888 25.8487 64.9719 26.7471 66.6333Z" fill="white"/>
<path fill-rule="evenodd" clip-rule="evenodd" d="M23.3684 76.1498C24.6576 78.5351 25.9467 80.9203 27.2372 83.3055C28.1342 84.9642 30.6413 83.4824 29.7416 81.821C28.4525 79.4358 27.1633 77.0506 25.8742 74.6667C24.9758 73.0067 22.4701 74.4885 23.3684 76.1498Z" fill="white"/>
<path fill-rule="evenodd" clip-rule="evenodd" d="M36.8643 77.7905C38.1534 80.1744 39.4426 82.5596 40.7331 84.9449C41.6301 86.6049 44.1359 85.1231 43.2375 83.4604C41.9483 81.0765 40.6592 78.6913 39.3687 76.306C38.4717 74.646 35.9659 76.1292 36.8643 77.7905Z" fill="white"/>
<path fill-rule="evenodd" clip-rule="evenodd" d="M64.856 58.9629L64.5471 59.1085H64.9245L64.856 58.9629Z" fill="white"/>
<path fill-rule="evenodd" clip-rule="evenodd" d="M50.8582 58.8311L50.4258 59.1086H51.0328L50.8582 58.8311Z" fill="white"/>
<path fill-rule="evenodd" clip-rule="evenodd" d="M70.9728 77.6951H66.2996C65.6806 77.6951 65.1058 78.0066 64.7621 78.5305C64.4196 79.053 64.3552 79.7115 64.5942 80.2912L68.9813 90.9233L51.1173 71.7286H55.589C56.2631 71.7286 56.8849 71.3558 57.2085 70.7571C57.5335 70.157 57.5106 69.4277 57.1481 68.8494L52.7314 61.8135H49.9799L54.7269 69.376H50.0229C49.2843 69.376 48.6169 69.8209 48.3255 70.5067C48.0328 71.1938 48.1711 71.9898 48.6773 72.5341L69.0726 94.4488C69.4379 94.842 69.92 95.0448 70.4115 95.0448C70.7579 95.0448 71.1084 94.9441 71.424 94.7359C72.1854 94.2352 72.4741 93.2922 72.1236 92.4418L67.01 80.0476H71.7167C72.3532 80.0476 72.9374 79.7211 73.2785 79.1768C73.6182 78.6325 73.6612 77.959 73.3899 77.378L66.1774 61.8135H63.6139L70.9728 77.6951Z" fill="white"/>
</svg>
