<?xml version="1.0" encoding="utf-8"?>
<!-- Generator: Adobe Illustrator 16.0.0, SVG Export Plug-In . SVG Version: 6.00 Build 0)  -->
<!DOCTYPE svg PUBLIC "-//W3C//DTD SVG 1.1//EN" "http://www.w3.org/Graphics/SVG/1.1/DTD/svg11.dtd">
<svg version="1.1" id="Layer_1" xmlns="http://www.w3.org/2000/svg" xmlns:xlink="http://www.w3.org/1999/xlink" x="0px" y="0px"
	 width="220px" height="220px" viewBox="0 0 220 220" enable-background="new 0 0 220 220" xml:space="preserve">
<g>
	<g>
		<g>
			<g>
				<path fill="#FFFFFF" d="M59.792,50.198c-0.969,0.404-2.079-0.061-2.479-1.038l-9.604-23.413
					c-0.401-0.978,0.058-2.099,1.027-2.503l10.096-4.225c0.969-0.405,2.079,0.059,2.477,1.037l9.606,23.413
					c0.4,0.978-0.059,2.099-1.028,2.503L59.792,50.198z"/>
			</g>
			<g>
				<path fill="#FFFFFF" d="M121.634,200.98c-0.968,0.404-2.079-0.061-2.479-1.037l-9.604-23.414
					c-0.401-0.978,0.06-2.098,1.027-2.504l10.096-4.222c0.969-0.406,2.08,0.059,2.48,1.035l9.603,23.415
					c0.4,0.977-0.059,2.097-1.027,2.503L121.634,200.98z"/>
			</g>
		</g>
		<g>
			<g>
				<path fill="#FFFFFF" d="M61.309,199.943c-0.398,0.979-1.508,1.441-2.477,1.037l-10.096-4.224
					c-0.969-0.406-1.428-1.526-1.027-2.504l9.604-23.414c0.401-0.977,1.51-1.441,2.479-1.037l10.095,4.224
					c0.97,0.406,1.429,1.526,1.028,2.504L61.309,199.943z"/>
			</g>
		</g>
		<g>
			<g>
				<path fill="#FFFFFF" d="M6.806,152.945c-0.969,0.406-2.079-0.059-2.478-1.036l-4.184-10.196c-0.4-0.978,0.06-2.1,1.028-2.506
					l23.185-9.697c0.969-0.406,2.079,0.059,2.479,1.036l4.184,10.196c0.399,0.978-0.06,2.1-1.028,2.504L6.806,152.945z"/>
			</g>
		</g>
		<g>
			<g>
				<path fill="#FFFFFF" d="M26.836,89.452c-0.401,0.978-1.51,1.442-2.479,1.037L1.172,80.79c-0.968-0.405-1.428-1.525-1.028-2.503
					l4.184-10.198c0.399-0.978,1.508-1.441,2.478-1.037l23.186,9.699c0.968,0.405,1.427,1.525,1.028,2.504L26.836,89.452z"/>
			</g>
		</g>
	</g>
	<g>
		<path fill="#FFFFFF" d="M173.501,166.745H90.252c-30.423,0-55.162-25.197-55.162-56.184c0-28.079,20.34-51.395,46.808-55.54
			l0.159-0.282c0.331-0.562,0.709-1.268,0.772-1.384c9.759-16.527,27.589-26.791,46.508-26.791c26.84,0,49.321,19.944,53.637,46.453
			C204.167,77.514,220,96.779,220,119.381C220,145.493,199.143,166.745,173.501,166.745z M90.252,69.324
			c-22.328,0-40.482,18.525-40.482,41.237c0,22.743,18.154,41.221,40.482,41.221h83.249c17.543,0,31.825-14.502,31.825-32.401
			c0-16.933-12.969-31.119-29.541-32.33l-4.567-0.308c-1.078-0.071-1.936-0.949-1.993-2.039l-0.241-4.683
			c-1.143-21.58-18.546-38.497-39.646-38.497c-11.67,0-22.429,5.062-29.871,13.847c3.298,0.682,7.883,2.396,10.607,5.335
			c2.171,2.341,1.138,6.212-0.635,8.872l-0.117,0.176c-1.636,2.458-4.899,2.917-7.621,1.814
			C97.733,69.963,93.39,69.324,90.252,69.324z"/>
	</g>
</g>
</svg>
